<?xml version="1.0" encoding="UTF-8"?>
<svg version="1.1" xmlns="http://www.w3.org/2000/svg" width="50" height="50">
<path d="M0 0 C4.62 0 9.24 0 14 0 C13.9071875 1.7325 13.9071875 1.7325 13.8125 3.5 C13.79551995 6.71488957 14.25064315 9.04377534 15.5 12 C17.25748906 16.15856565 17.24023369 19.51563783 17 24 C18.98 24 20.96 24 23 24 C23 26.97 23 29.94 23 33 C22.01 33 21.02 33 20 33 C20.0825 33.94875 20.165 34.8975 20.25 35.875 C20 40 20 40 16 50 C4.12 50 -7.76 50 -20 50 C-24.5 38.75 -24.5 38.75 -24 33 C-24.99 33 -25.98 33 -27 33 C-27 30.03 -27 27.06 -27 24 C-25.68 24 -24.36 24 -23 24 C-22.9175 23.0925 -22.835 22.185 -22.75 21.25 C-21.86932696 17.43375015 -21.20835903 16.22117164 -18 14 C-13.44361398 12.77987989 -9.57777297 12.95365189 -5 14 C-4.01 13.67 -3.02 13.34 -2 13 C0.13869011 8.27236924 0 5.47062126 0 0 Z M2 2 C2 2.99 2 3.98 2 5 C5.3 5 8.6 5 12 5 C12 4.01 12 3.02 12 2 C8.7 2 5.4 2 2 2 Z M5 7 C2.14174992 10.23106531 1.59509893 12.78230858 1 17 C2.95519384 18.17192047 4.9142539 19.3373929 6.875 20.5 C7.96554688 21.1496875 9.05609375 21.799375 10.1796875 22.46875 C12.75807672 24.15904853 12.75807672 24.15904853 15 24 C13.6847962 15.5741522 13.6847962 15.5741522 10 8 C7.41585574 7.03093173 7.41585574 7.03093173 5 7 Z M-16.1875 16.5625 C-18.77461573 18.61435041 -19.18443734 20.87367645 -20 24 C-17.21061788 24.41890218 -17.21061788 24.41890218 -14 24 C-11.08209475 21.7495803 -11.08209475 21.7495803 -9 19 C-9 18.34 -9 17.68 -9 17 C-11.66170427 16.2606377 -13.48685659 15.86804884 -16.1875 16.5625 Z M-10 23 C-10 23.33 -10 23.66 -10 24 C-4.39 24 1.22 24 7 24 C-1.59010296 17.25902472 -1.59010296 17.25902472 -10 23 Z M-24 26 C-24.59070014 27.94603274 -24.59070014 27.94603274 -25 30 C-24.02366535 31.19571386 -24.02366535 31.19571386 -22.20933533 31.12025452 C-21.42990067 31.11803391 -20.650466 31.11581329 -19.84741211 31.11352539 C-18.96657455 31.11344986 -18.085737 31.11337433 -17.1782074 31.11329651 C-15.74227989 31.10555458 -15.74227989 31.10555458 -14.27734375 31.09765625 C-13.30213272 31.0962413 -12.32692169 31.09482635 -11.32215881 31.09336853 C-8.19390857 31.08775133 -5.06572877 31.07519593 -1.9375 31.0625 C0.17773334 31.05748722 2.29296781 31.05292393 4.40820312 31.04882812 C9.60549296 31.03777631 14.80274145 31.02102146 20 31 C20.59070014 29.05396726 20.59070014 29.05396726 21 27 C20.02366535 25.80428614 20.02366535 25.80428614 18.20933533 25.87974548 C17.42990067 25.88196609 16.650466 25.88418671 15.84741211 25.88647461 C14.96657455 25.88655014 14.085737 25.88662567 13.1782074 25.88670349 C11.74227989 25.89444542 11.74227989 25.89444542 10.27734375 25.90234375 C8.81452721 25.90446617 8.81452721 25.90446617 7.32215881 25.90663147 C4.19390857 25.91224867 1.06572877 25.92480407 -2.0625 25.9375 C-4.17773334 25.94251278 -6.29296781 25.94707607 -8.40820312 25.95117188 C-13.60549296 25.96222369 -18.80274145 25.97897854 -24 26 Z M-22 33 C-21.54901762 34.93922422 -21.08894441 36.87633594 -20.625 38.8125 C-20.36976562 39.89144531 -20.11453125 40.97039063 -19.8515625 42.08203125 C-19.11267119 45.15533343 -19.11267119 45.15533343 -17 48 C-13.79574675 48.41854048 -13.79574675 48.41854048 -10.0234375 48.29296875 C-8.99556625 48.28660149 -8.99556625 48.28660149 -7.94692993 48.28010559 C-5.75588871 48.26329753 -3.56576368 48.22564405 -1.375 48.1875 C0.10936173 48.17245579 1.59373785 48.15876693 3.078125 48.14648438 C6.71904833 48.1133879 10.35943478 48.06159207 14 48 C14.6700834 45.87607494 15.33596797 43.75082476 16 41.625 C16.37125 40.44164062 16.7425 39.25828125 17.125 38.0390625 C18.09222606 35.20676561 18.09222606 35.20676561 18 33 C15.69 33 13.38 33 11 33 C11 37.29 11 41.58 11 46 C9.35 46 7.7 46 6 46 C6 41.71 6 37.42 6 33 C5.34 33 4.68 33 4 33 C4 37.29 4 41.58 4 46 C2.35 46 0.7 46 -1 46 C-1 41.71 -1 37.42 -1 33 C-1.66 33 -2.32 33 -3 33 C-3 37.29 -3 41.58 -3 46 C-4.65 46 -6.3 46 -8 46 C-8 41.71 -8 37.42 -8 33 C-8.66 33 -9.32 33 -10 33 C-10 37.29 -10 41.58 -10 46 C-11.65 46 -13.3 46 -15 46 C-15 41.71 -15 37.42 -15 33 C-17.31 33 -19.62 33 -22 33 Z M-13 33 C-13 36.63 -13 40.26 -13 44 C-12.67 44 -12.34 44 -12 44 C-12 40.37 -12 36.74 -12 33 C-12.33 33 -12.66 33 -13 33 Z M-6 33 C-6 36.63 -6 40.26 -6 44 C-5.67 44 -5.34 44 -5 44 C-5 40.37 -5 36.74 -5 33 C-5.33 33 -5.66 33 -6 33 Z M1 33 C1 36.63 1 40.26 1 44 C1.33 44 1.66 44 2 44 C2 40.37 2 36.74 2 33 C1.67 33 1.34 33 1 33 Z M8 33 C8 36.63 8 40.26 8 44 C8.33 44 8.66 44 9 44 C9 40.37 9 36.74 9 33 C8.67 33 8.34 33 8 33 Z " fill="#000000" transform="translate(27,0)"/>
</svg>
