<?xml version="1.0" encoding="UTF-8"?>
<svg version="1.1" xmlns="http://www.w3.org/2000/svg" width="48" height="48">
<path d="M0 0 C2.39701193 1.38099452 3.9732772 3.06978781 6 5 C6.66 4.34 7.32 3.68 8 3 C9.32 3 10.64 3 12 3 C12.1953125 5.01822917 12.390625 7.03645833 12.5859375 9.0546875 C12.86374749 11.22668245 12.86374749 11.22668245 15 13 C15 14.32 15 15.64 15 17 C14.01 17 13.02 17 12 17 C12.01160156 18.07121094 12.02320313 19.14242188 12.03515625 20.24609375 C12.04453299 21.64322743 12.05363331 23.04036299 12.0625 24.4375 C12.07087891 25.14455078 12.07925781 25.85160156 12.08789062 26.58007812 C12.09653588 28.38693559 12.05220011 30.19387603 12 32 C11 33 11 33 8.27734375 33.09765625 C7.17519531 33.08605469 6.07304688 33.07445312 4.9375 33.0625 C3.83277344 33.05347656 2.72804688 33.04445312 1.58984375 33.03515625 C0.73519531 33.02355469 -0.11945312 33.01195312 -1 33 C-1 29.7 -1 26.4 -1 23 C-2.32 23 -3.64 23 -5 23 C-5 26.3 -5 29.6 -5 33 C-6.97909398 33.02686553 -8.95828971 33.04633375 -10.9375 33.0625 C-12.03964844 33.07410156 -13.14179688 33.08570313 -14.27734375 33.09765625 C-17 33 -17 33 -18 32 C-18.07313567 29.46950598 -18.09247527 26.96695163 -18.0625 24.4375 C-18.05798828 23.72658203 -18.05347656 23.01566406 -18.04882812 22.28320312 C-18.03700864 20.52209987 -18.01907263 18.76103964 -18 17 C-18.99 17 -19.98 17 -21 17 C-20.8528824 13.2239817 -19.69295089 11.40854112 -17.05078125 8.88671875 C-15.81556843 7.80772792 -14.56899859 6.74162675 -13.3125 5.6875 C-12.39307617 4.86282227 -12.39307617 4.86282227 -11.45507812 4.02148438 C-7.66761926 0.78828779 -5.19022452 -0.9644247 0 0 Z M-12.61328125 10.0078125 C-16.41402083 14.77273315 -15.92322091 19.06275108 -15.58203125 24.83984375 C-15.29330577 28.08491499 -15.29330577 28.08491499 -13 30 C-11.68 30 -10.36 30 -9 30 C-8.67 26.7 -8.34 23.4 -8 20 C-4.7 20 -1.4 20 2 20 C2.33 23.3 2.66 26.6 3 30 C6.29075996 29.62095792 6.29075996 29.62095792 9 28 C9.82844506 22.76208927 10.00639575 18.18241936 9 13 C5.88344126 9.08131057 2.36960664 6.42099828 -2 4 C-6.20628183 4 -9.50262655 7.46236173 -12.61328125 10.0078125 Z " fill="#000000" transform="translate(27,6)"/>
</svg>
