<?xml version="1.0" encoding="UTF-8"?>
<svg version="1.1" xmlns="http://www.w3.org/2000/svg" width="50" height="50">
<path d="M0 0 C9.24 0 18.48 0 28 0 C28 4.29 28 8.58 28 13 C30.97 13 33.94 13 37 13 C37 20.92 37 28.84 37 37 C34.03 37 31.06 37 28 37 C28 39.97 28 42.94 28 46 C18.76 46 9.52 46 0 46 C0 43.03 0 40.06 0 37 C-2.97 37 -5.94 37 -9 37 C-9 29.08 -9 21.16 -9 13 C-6.03 13 -3.06 13 0 13 C0 8.71 0 4.42 0 0 Z M2 2 C2 5.63 2 9.26 2 13 C9.92 13 17.84 13 26 13 C26 9.37 26 5.74 26 2 C18.08 2 10.16 2 2 2 Z M-7 16 C-7.0983721 17.33043625 -7.13078592 18.66593344 -7.1328125 20 C-7.13410156 20.804375 -7.13539062 21.60875 -7.13671875 22.4375 C-7.13285156 23.283125 -7.12898437 24.12875 -7.125 25 C-7.12886719 25.845625 -7.13273438 26.69125 -7.13671875 27.5625 C-7.13542969 28.366875 -7.13414063 29.17125 -7.1328125 30 C-7.13168457 30.7425 -7.13055664 31.485 -7.12939453 32.25 C-7.18942216 34.02825811 -7.18942216 34.02825811 -6 35 C-4.00041636 35.04080783 -1.99954746 35.04254356 0 35 C0 32.03 0 29.06 0 26 C9.24 26 18.48 26 28 26 C28 28.97 28 31.94 28 35 C29.99954746 35.04254356 32.00041636 35.04080783 34 35 C35.5220959 33.4779041 35.12959521 32.11789918 35.1328125 30 C35.13410156 29.195625 35.13539062 28.39125 35.13671875 27.5625 C35.13091797 26.2940625 35.13091797 26.2940625 35.125 25 C35.12886719 24.154375 35.13273437 23.30875 35.13671875 22.4375 C35.13478516 21.2309375 35.13478516 21.2309375 35.1328125 20 C35.13112061 18.88625 35.13112061 18.88625 35.12939453 17.75 C35.18942216 15.97174189 35.18942216 15.97174189 34 15 C31.0546443 14.89889647 28.1332244 14.86030721 25.1875 14.8671875 C24.30344482 14.86623077 23.41938965 14.86527405 22.50854492 14.86428833 C20.63557871 14.86360649 18.76261014 14.86546107 16.88964844 14.86962891 C14.01231612 14.87497711 11.13513992 14.86968407 8.2578125 14.86328125 C6.44270799 14.86394203 4.62760357 14.86522319 2.8125 14.8671875 C1.51252075 14.86415115 1.51252075 14.86415115 0.1862793 14.86105347 C-3.72003219 14.48739586 -3.72003219 14.48739586 -7 16 Z M2 28 C2 33.28 2 38.56 2 44 C9.92 44 17.84 44 26 44 C26 38.72 26 33.44 26 28 C18.08 28 10.16 28 2 28 Z " fill="#000000" transform="translate(11,2)"/>
<path d="M0 0 C5.94 0 11.88 0 18 0 C18 0.66 18 1.32 18 2 C12.06 2 6.12 2 0 2 C0 1.34 0 0.68 0 0 Z " fill="#000000" transform="translate(16,41)"/>
<path d="M0 0 C5.94 0 11.88 0 18 0 C18 0.66 18 1.32 18 2 C12.06 2 6.12 2 0 2 C0 1.34 0 0.68 0 0 Z " fill="#000000" transform="translate(16,33)"/>
<path d="M0 0 C4.62 0 9.24 0 14 0 C14 0.66 14 1.32 14 2 C9.38 2 4.76 2 0 2 C0 1.34 0 0.68 0 0 Z " fill="#000000" transform="translate(16,37)"/>
<path d="M0 0 C1.32 0 2.64 0 4 0 C4 1.32 4 2.64 4 4 C2.68 4 1.36 4 0 4 C0 2.68 0 1.36 0 0 Z " fill="#000000" transform="translate(39,20)"/>
</svg>
