<?xml version="1.0" encoding="UTF-8"?>
<svg version="1.1" xmlns="http://www.w3.org/2000/svg" width="80" height="80">
<path d="M0 0 C1.98 0 3.96 0 6 0 C6 1.65 6 3.3 6 5 C13.92 5 21.84 5 30 5 C30 3.35 30 1.7 30 0 C31.98 0 33.96 0 36 0 C36 1.65 36 3.3 36 5 C36.69867188 4.97679687 37.39734375 4.95359375 38.1171875 4.9296875 C39.48230469 4.90261719 39.48230469 4.90261719 40.875 4.875 C42.23238281 4.84019531 42.23238281 4.84019531 43.6171875 4.8046875 C46 5 46 5 48 7 C48.25396729 9.35302734 48.25396729 9.35302734 48.25878906 12.3359375 C48.26509338 13.45049316 48.27139771 14.56504883 48.27789307 15.71337891 C48.2738446 16.92171387 48.26979614 18.13004883 48.265625 19.375 C48.26849518 21.22810791 48.26849518 21.22810791 48.27142334 23.11865234 C48.2731361 26.40591407 48.26506699 29.69298787 48.25390625 32.98022461 C48.25000397 34.9979453 48.25389171 37.01549201 48.26074219 39.03320312 C48.27306004 42.89721828 48.27160978 46.76097428 48.265625 50.625 C48.26967346 51.83333496 48.27372192 53.04166992 48.27789307 54.28662109 C48.27158875 55.40117676 48.26528442 56.51573242 48.25878906 57.6640625 C48.25719788 58.64842285 48.25560669 59.6327832 48.25396729 60.64697266 C48 63 48 63 46 65 C43.64697266 65.25396729 43.64697266 65.25396729 40.6640625 65.25878906 C39.54950684 65.26509338 38.43495117 65.27139771 37.28662109 65.27789307 C35.47411865 65.27182037 35.47411865 65.27182037 33.625 65.265625 C31.77189209 65.26849518 31.77189209 65.26849518 29.88134766 65.27142334 C26.59408593 65.2731361 23.30701213 65.26506699 20.01977539 65.25390625 C18.0020547 65.25000397 15.98450799 65.25389171 13.96679688 65.26074219 C10.10278172 65.27306004 6.23902572 65.27160978 2.375 65.265625 C1.16666504 65.26967346 -0.04166992 65.27372192 -1.28662109 65.27789307 C-2.40117676 65.27158875 -3.51573242 65.26528442 -4.6640625 65.25878906 C-5.64842285 65.25719788 -6.6327832 65.25560669 -7.64697266 65.25396729 C-10 65 -10 65 -12 63 C-12.25396729 60.64697266 -12.25396729 60.64697266 -12.25878906 57.6640625 C-12.26509338 56.54950684 -12.27139771 55.43495117 -12.27789307 54.28662109 C-12.2738446 53.07828613 -12.26979614 51.86995117 -12.265625 50.625 C-12.26753845 49.38959473 -12.2694519 48.15418945 -12.27142334 46.88134766 C-12.2731361 43.59408593 -12.26506699 40.30701213 -12.25390625 37.01977539 C-12.25000397 35.0020547 -12.25389171 32.98450799 -12.26074219 30.96679688 C-12.27306004 27.10278172 -12.27160978 23.23902572 -12.265625 19.375 C-12.26967346 18.16666504 -12.27372192 16.95833008 -12.27789307 15.71337891 C-12.27158875 14.59882324 -12.26528442 13.48426758 -12.25878906 12.3359375 C-12.25719788 11.35157715 -12.25560669 10.3672168 -12.25396729 9.35302734 C-12 7 -12 7 -10 5 C-7.6171875 4.8046875 -7.6171875 4.8046875 -4.875 4.875 C-3.50988281 4.90207031 -3.50988281 4.90207031 -2.1171875 4.9296875 C-1.41851562 4.95289063 -0.71984375 4.97609375 0 5 C0 3.35 0 1.7 0 0 Z M2 2 C2 4.64 2 7.28 2 10 C2.66 10 3.32 10 4 10 C4 7.36 4 4.72 4 2 C3.34 2 2.68 2 2 2 Z M32 2 C32 4.64 32 7.28 32 10 C32.66 10 33.32 10 34 10 C34 7.36 34 4.72 34 2 C33.34 2 32.68 2 32 2 Z M-8.9375 8.0625 C-10.56097138 10.65466303 -10.56097138 10.65466303 -10 17 C8.48 17 26.96 17 46 17 C46.56097138 10.65466303 46.56097138 10.65466303 44.9375 8.0625 C41.98831309 6.44520395 39.29132441 6.81369862 36 7 C36 8.65 36 10.3 36 12 C34.02 12 32.04 12 30 12 C30 10.35 30 8.7 30 7 C22.08 7 14.16 7 6 7 C6 8.65 6 10.3 6 12 C4.02 12 2.04 12 0 12 C0 10.35 0 8.7 0 7 C-4.63981875 6.62945129 -4.63981875 6.62945129 -8.9375 8.0625 Z M-10 19 C-10.061875 25.703125 -10.12375 32.40625 -10.1875 39.3125 C-10.21481201 41.42567627 -10.24212402 43.53885254 -10.27026367 45.71606445 C-10.27902511 47.3901309 -10.28666986 49.06420373 -10.29296875 50.73828125 C-10.30831665 51.60819702 -10.32366455 52.47811279 -10.33947754 53.37438965 C-10.33984009 54.20643921 -10.34020264 55.03848877 -10.34057617 55.89575195 C-10.34723801 56.61745071 -10.35389984 57.33914948 -10.36076355 58.0827179 C-9.87813908 60.64763129 -9.11895277 61.49413687 -7 63 C-4.70528973 63.45383872 -4.70528973 63.45383872 -2.1171875 63.38818359 C-1.12605957 63.39764008 -0.13493164 63.40709656 0.88623047 63.4168396 C1.95502441 63.41076691 3.02381836 63.40469421 4.125 63.3984375 C5.77266357 63.40274277 5.77266357 63.40274277 7.45361328 63.40713501 C9.77702347 63.40917736 12.10045078 63.40363563 14.42382812 63.39111328 C17.98606712 63.37506278 21.54717142 63.39095698 25.109375 63.41015625 C27.36458585 63.40817385 29.61979598 63.40433024 31.875 63.3984375 C32.94379395 63.40451019 34.01258789 63.41058289 35.11376953 63.4168396 C36.10489746 63.40738312 37.09602539 63.39792664 38.1171875 63.38818359 C38.98972168 63.38579681 39.86225586 63.38341003 40.76123047 63.38095093 C43.05105908 63.15806714 43.05105908 63.15806714 44.78388977 61.73225403 C46.27560037 59.6074288 46.36439425 58.47604395 46.34057617 55.89575195 C46.34021362 55.06370239 46.33985107 54.23165283 46.33947754 53.37438965 C46.32412964 52.50447388 46.30878174 51.63455811 46.29296875 50.73828125 C46.28994751 49.93531616 46.28692627 49.13235107 46.28381348 48.30505371 C46.2681249 45.30740494 46.22624078 42.30993948 46.1875 39.3125 C46.125625 32.609375 46.06375 25.90625 46 19 C27.52 19 9.04 19 -10 19 Z " fill="#000000" transform="translate(22,5)"/>
<path d="M0 0 C0.73734375 0.00773437 1.4746875 0.01546875 2.234375 0.0234375 C3.34039062 0.01183594 3.34039062 0.01183594 4.46875 0 C9.9810554 0.0201179 9.9810554 0.0201179 12.234375 2.2734375 C12.91255396 9.16825697 12.91255396 9.16825697 10.546875 13.0234375 C8.21960014 15.28781304 5.8315649 17.32554508 3.234375 19.2734375 C-1.43160281 17.19966958 -4.92674062 14.53176407 -7.765625 10.2734375 C-8.13729684 7.51322754 -7.94413136 5.08491274 -7.765625 2.2734375 C-5.20613501 -0.28605249 -3.49355305 0.01275019 0 0 Z M-3.765625 3.2734375 C-4.7249407 5.46858623 -4.7249407 5.46858623 -4.765625 8.2734375 C-3.32139019 10.57451311 -1.65690365 12.28990136 0.234375 14.2734375 C3.70264722 13.98441481 5.04091054 13.45671962 7.609375 11.0234375 C9.52091822 8.39856838 9.52091822 8.39856838 8.984375 5.4609375 C8.736875 4.7390625 8.489375 4.0171875 8.234375 3.2734375 C7.1825 3.4590625 6.130625 3.6446875 5.046875 3.8359375 C1.66317618 4.22423081 -0.52988388 4.15591235 -3.765625 3.2734375 Z " fill="#000000" transform="translate(37.765625,35.7265625)"/>
<path d="M0 0 C0.66 0 1.32 0 2 0 C2 0.66 2 1.32 2 2 C1.34 2 0.68 2 0 2 C0 1.34 0 0.68 0 0 Z " fill="#000000" transform="translate(55,58)"/>
<path d="M0 0 C0.66 0 1.32 0 2 0 C2 0.66 2 1.32 2 2 C1.34 2 0.68 2 0 2 C0 1.34 0 0.68 0 0 Z " fill="#000000" transform="translate(51,58)"/>
<path d="M0 0 C0.66 0 1.32 0 2 0 C2 0.66 2 1.32 2 2 C1.34 2 0.68 2 0 2 C0 1.34 0 0.68 0 0 Z " fill="#000000" transform="translate(47,58)"/>
<path d="M0 0 C0.66 0 1.32 0 2 0 C2 0.66 2 1.32 2 2 C1.34 2 0.68 2 0 2 C0 1.34 0 0.68 0 0 Z " fill="#000000" transform="translate(43,58)"/>
<path d="M0 0 C0.66 0 1.32 0 2 0 C2 0.66 2 1.32 2 2 C1.34 2 0.68 2 0 2 C0 1.34 0 0.68 0 0 Z " fill="#000000" transform="translate(39,58)"/>
<path d="M0 0 C0.66 0 1.32 0 2 0 C2 0.66 2 1.32 2 2 C1.34 2 0.68 2 0 2 C0 1.34 0 0.68 0 0 Z " fill="#000000" transform="translate(35,58)"/>
<path d="M0 0 C0.66 0 1.32 0 2 0 C2 0.66 2 1.32 2 2 C1.34 2 0.68 2 0 2 C0 1.34 0 0.68 0 0 Z " fill="#000000" transform="translate(31,58)"/>
<path d="M0 0 C0.66 0 1.32 0 2 0 C2 0.66 2 1.32 2 2 C1.34 2 0.68 2 0 2 C0 1.34 0 0.68 0 0 Z " fill="#000000" transform="translate(27,58)"/>
<path d="M0 0 C0.66 0 1.32 0 2 0 C2 0.66 2 1.32 2 2 C1.34 2 0.68 2 0 2 C0 1.34 0 0.68 0 0 Z " fill="#000000" transform="translate(23,58)"/>
<path d="M0 0 C0.66 0 1.32 0 2 0 C2 0.66 2 1.32 2 2 C1.34 2 0.68 2 0 2 C0 1.34 0 0.68 0 0 Z " fill="#000000" transform="translate(55,54)"/>
<path d="M0 0 C0.66 0 1.32 0 2 0 C2 0.66 2 1.32 2 2 C1.34 2 0.68 2 0 2 C0 1.34 0 0.68 0 0 Z " fill="#000000" transform="translate(23,54)"/>
<path d="M0 0 C0.66 0 1.32 0 2 0 C2 0.66 2 1.32 2 2 C1.34 2 0.68 2 0 2 C0 1.34 0 0.68 0 0 Z " fill="#000000" transform="translate(55,50)"/>
<path d="M0 0 C0.66 0 1.32 0 2 0 C2 0.66 2 1.32 2 2 C1.34 2 0.68 2 0 2 C0 1.34 0 0.68 0 0 Z " fill="#000000" transform="translate(23,50)"/>
<path d="M0 0 C0.66 0 1.32 0 2 0 C2 0.66 2 1.32 2 2 C1.34 2 0.68 2 0 2 C0 1.34 0 0.68 0 0 Z " fill="#000000" transform="translate(55,46)"/>
<path d="M0 0 C0.66 0 1.32 0 2 0 C2 0.66 2 1.32 2 2 C1.34 2 0.68 2 0 2 C0 1.34 0 0.68 0 0 Z " fill="#000000" transform="translate(23,46)"/>
<path d="M0 0 C0.66 0 1.32 0 2 0 C2 0.66 2 1.32 2 2 C1.34 2 0.68 2 0 2 C0 1.34 0 0.68 0 0 Z " fill="#000000" transform="translate(55,42)"/>
<path d="M0 0 C0.66 0 1.32 0 2 0 C2 0.66 2 1.32 2 2 C1.34 2 0.68 2 0 2 C0 1.34 0 0.68 0 0 Z " fill="#000000" transform="translate(23,42)"/>
<path d="M0 0 C0.66 0 1.32 0 2 0 C2 0.66 2 1.32 2 2 C1.34 2 0.68 2 0 2 C0 1.34 0 0.68 0 0 Z " fill="#000000" transform="translate(55,38)"/>
<path d="M0 0 C0.66 0 1.32 0 2 0 C2 0.66 2 1.32 2 2 C1.34 2 0.68 2 0 2 C0 1.34 0 0.68 0 0 Z " fill="#000000" transform="translate(23,38)"/>
<path d="M0 0 C0.66 0 1.32 0 2 0 C2 0.66 2 1.32 2 2 C1.34 2 0.68 2 0 2 C0 1.34 0 0.68 0 0 Z " fill="#000000" transform="translate(55,34)"/>
<path d="M0 0 C0.66 0 1.32 0 2 0 C2 0.66 2 1.32 2 2 C1.34 2 0.68 2 0 2 C0 1.34 0 0.68 0 0 Z " fill="#000000" transform="translate(23,34)"/>
<path d="M0 0 C0.66 0 1.32 0 2 0 C2 0.66 2 1.32 2 2 C1.34 2 0.68 2 0 2 C0 1.34 0 0.68 0 0 Z " fill="#000000" transform="translate(55,30)"/>
<path d="M0 0 C0.66 0 1.32 0 2 0 C2 0.66 2 1.32 2 2 C1.34 2 0.68 2 0 2 C0 1.34 0 0.68 0 0 Z " fill="#000000" transform="translate(51,30)"/>
<path d="M0 0 C0.66 0 1.32 0 2 0 C2 0.66 2 1.32 2 2 C1.34 2 0.68 2 0 2 C0 1.34 0 0.68 0 0 Z " fill="#000000" transform="translate(47,30)"/>
<path d="M0 0 C0.66 0 1.32 0 2 0 C2 0.66 2 1.32 2 2 C1.34 2 0.68 2 0 2 C0 1.34 0 0.68 0 0 Z " fill="#000000" transform="translate(43,30)"/>
<path d="M0 0 C0.66 0 1.32 0 2 0 C2 0.66 2 1.32 2 2 C1.34 2 0.68 2 0 2 C0 1.34 0 0.68 0 0 Z " fill="#000000" transform="translate(39,30)"/>
<path d="M0 0 C0.66 0 1.32 0 2 0 C2 0.66 2 1.32 2 2 C1.34 2 0.68 2 0 2 C0 1.34 0 0.68 0 0 Z " fill="#000000" transform="translate(35,30)"/>
<path d="M0 0 C0.66 0 1.32 0 2 0 C2 0.66 2 1.32 2 2 C1.34 2 0.68 2 0 2 C0 1.34 0 0.68 0 0 Z " fill="#000000" transform="translate(31,30)"/>
<path d="M0 0 C0.66 0 1.32 0 2 0 C2 0.66 2 1.32 2 2 C1.34 2 0.68 2 0 2 C0 1.34 0 0.68 0 0 Z " fill="#000000" transform="translate(27,30)"/>
<path d="M0 0 C0.66 0 1.32 0 2 0 C2 0.66 2 1.32 2 2 C1.34 2 0.68 2 0 2 C0 1.34 0 0.68 0 0 Z " fill="#000000" transform="translate(23,30)"/>
</svg>
