<?xml version="1.0" encoding="UTF-8"?>
<svg version="1.1" xmlns="http://www.w3.org/2000/svg" width="50" height="50">
<path d="M0 0 C3.3 0 6.6 0 10 0 C10 1.65 10 3.3 10 5 C10.99 5 11.98 5 13 5 C13 16.22 13 27.44 13 39 C7.72 39 2.44 39 -3 39 C-3.19497675 34.45854165 -3.38126709 29.91700996 -3.5625 25.375 C-3.61857422 24.08980469 -3.67464844 22.80460937 -3.73242188 21.48046875 C-3.78076172 20.23652344 -3.82910156 18.99257813 -3.87890625 17.7109375 C-3.9260376 16.56931152 -3.97316895 15.42768555 -4.02172852 14.25146484 C-4.0003519 11.05265814 -3.61639045 8.13383696 -3 5 C-2.01 5 -1.02 5 0 5 C0 3.35 0 1.7 0 0 Z M2 2 C2 2.99 2 3.98 2 5 C3.98 5 5.96 5 8 5 C8 4.01 8 3.02 8 2 C6.02 2 4.04 2 2 2 Z M-1 7 C-1 8.32 -1 9.64 -1 11 C2.96 11 6.92 11 11 11 C11 9.68 11 8.36 11 7 C7.04 7 3.08 7 -1 7 Z M-1 13 C-1 13.66 -1 14.32 -1 15 C2.96 15 6.92 15 11 15 C11 14.34 11 13.68 11 13 C7.04 13 3.08 13 -1 13 Z M-1 17 C-1.02683697 20.14588944 -1.04675902 23.29155271 -1.0625 26.4375 C-1.07087891 27.33533203 -1.07925781 28.23316406 -1.08789062 29.15820312 C-1.09111328 30.01220703 -1.09433594 30.86621094 -1.09765625 31.74609375 C-1.10289307 32.53685303 -1.10812988 33.3276123 -1.11352539 34.14233398 C-1.20495909 36.01592689 -1.20495909 36.01592689 0 37 C1.66429051 37.09823937 3.33281931 37.12973631 5 37.125 C5.9075 37.12757812 6.815 37.13015625 7.75 37.1328125 C9.96966611 37.25173779 9.96966611 37.25173779 11 36 C11.08651611 34.58429877 11.10704904 33.164405 11.09765625 31.74609375 C11.09443359 30.89208984 11.09121094 30.03808594 11.08789062 29.15820312 C11.07951172 28.26037109 11.07113281 27.36253906 11.0625 26.4375 C11.05798828 25.53580078 11.05347656 24.63410156 11.04882812 23.70507812 C11.03700244 21.47002411 11.01906638 19.23500398 11 17 C7.04 17 3.08 17 -1 17 Z " fill="#000000" transform="translate(31,11)"/>
<path d="M0 0 C5.28 0 10.56 0 16 0 C16 6.6 16 13.2 16 20 C10.72 20 5.44 20 0 20 C0 13.4 0 6.8 0 0 Z M2 2 C1.97314905 4.47923801 1.95323453 6.9581884 1.9375 9.4375 C1.92912109 10.14455078 1.92074219 10.85160156 1.91210938 11.58007812 C1.90346412 13.38693559 1.94779989 15.19387603 2 17 C3.03033389 18.25173779 3.03033389 18.25173779 5.25 18.1328125 C6.61125 18.12894531 6.61125 18.12894531 8 18.125 C8.9075 18.12757812 9.815 18.13015625 10.75 18.1328125 C12.96966611 18.25173779 12.96966611 18.25173779 14 17 C14.07313567 14.46950598 14.09247527 11.96695163 14.0625 9.4375 C14.05798828 8.72658203 14.05347656 8.01566406 14.04882812 7.28320312 C14.03700864 5.52209987 14.01907263 3.76103964 14 2 C10.04 2 6.08 2 2 2 Z " fill="#000000" transform="translate(6,30)"/>
<path d="M0 0 C3.3 0 6.6 0 10 0 C10 0.66 10 1.32 10 2 C8.68 2 7.36 2 6 2 C6 6.29 6 10.58 6 15 C5.34 15 4.68 15 4 15 C4 10.71 4 6.42 4 2 C2.68 2 1.36 2 0 2 C0 1.34 0 0.68 0 0 Z " fill="#000000" transform="translate(9,14)"/>
<path d="M0 0 C4.29 0 8.58 0 13 0 C13 0.66 13 1.32 13 2 C8.71 2 4.42 2 0 2 C0 1.34 0 0.68 0 0 Z " fill="#000000" transform="translate(7,8)"/>
<path d="M0 0 C3.96 0 7.92 0 12 0 C12 0.66 12 1.32 12 2 C8.04 2 4.08 2 0 2 C0 1.34 0 0.68 0 0 Z " fill="#000000" transform="translate(8,11)"/>
<path d="M0 0 C3.96 0 7.92 0 12 0 C12 0.66 12 1.32 12 2 C8.04 2 4.08 2 0 2 C0 1.34 0 0.68 0 0 Z " fill="#000000" transform="translate(8,5)"/>
<path d="M0 0 C0.66 0 1.32 0 2 0 C2 0.66 2 1.32 2 2 C3.32 2 4.64 2 6 2 C6 2.66 6 3.32 6 4 C2.7 4 -0.6 4 -4 4 C-4 3.34 -4 2.68 -4 2 C-2.68 2 -1.36 2 0 2 C0 1.34 0 0.68 0 0 Z " fill="#000000" transform="translate(13,0)"/>
</svg>
