<?xml version="1.0" encoding="UTF-8"?>
<svg version="1.1" xmlns="http://www.w3.org/2000/svg" width="64" height="64">
<path d="M0 0 C5.9863115 4.76649803 9.0477177 9.75628926 9.9609375 17.359375 C10.01947448 21.31647501 9.27423682 24.24100139 8 28 C7.34 29.98 6.68 31.96 6 34 C9.3 37.3 12.6 40.6 16 44 C15.67 44.99 15.34 45.98 15 47 C11.54798361 45.52278578 9.35038064 43.56205999 6.75 40.875 C6.04359375 40.15054688 5.3371875 39.42609375 4.609375 38.6796875 C4.07828125 38.12539063 3.5471875 37.57109375 3 37 C2.21625 37.28875 1.4325 37.5775 0.625 37.875 C-7.06233325 40.26072411 -14.31879971 42.47195615 -22 39 C-27.8678473 35.16584223 -31.90365201 31.04135866 -33.63671875 24.15625 C-34.70695867 17.80385819 -33.98895887 12.66706601 -31 7 C-22.73854052 -2.8244383 -11.6665553 -6.25279419 0 0 Z M-27 7 C-30.62881591 11.40641932 -31.24021367 16.43366949 -31 22 C-29.79667067 27.64569549 -27.3609787 31.14468196 -22.6875 34.5 C-17.17669941 37.72736935 -12.73041434 38.66220098 -6.5 37.0625 C-1.21576669 35.06623408 2.05061638 31.7605544 5 27 C7.12051546 22.22672816 7.37660354 18.2660661 5.9375 13.25 C3.65906977 7.48868304 -0.37382681 3.55735145 -6 1 C-14.40413237 -1.06139096 -20.66054546 1.01273738 -27 7 Z " fill="#000000" transform="translate(41,10)"/>
</svg>
