<?xml version="1.0" encoding="UTF-8"?>
<svg version="1.1" xmlns="http://www.w3.org/2000/svg" width="100" height="100">
<path d="M0 0 C10.24816326 6.36401975 15.88111199 14.26833596 19.6796875 25.6640625 C20.74210215 38.40131512 20.12185694 50.62383892 15.6796875 62.6640625 C15.41027344 63.56769531 15.14085938 64.47132812 14.86328125 65.40234375 C13.55510293 68.74668246 12.26650112 70.84339244 9.00292969 72.53125 C1.88110216 75.51793753 -4.62870707 77.42950543 -12.3203125 75.6640625 C-14.8203125 73.9765625 -14.8203125 73.9765625 -16.3203125 71.6640625 C-16.15331969 65.44603593 -12.75825434 60.25573464 -9.8828125 54.9140625 C-9.37943359 53.95628906 -8.87605469 52.99851563 -8.35742188 52.01171875 C-4.60878759 44.95253759 -4.60878759 44.95253759 -2.3203125 42.6640625 C5.51302083 42.08381559 5.51302083 42.08381559 8.6796875 44.6640625 C9.39065633 46.64874579 10.06102911 48.64869498 10.6796875 50.6640625 C12.02724955 38.8819997 11.95710338 30.34600469 4.6796875 20.6640625 C0.01448831 14.93253206 -7.05953556 11.10139998 -14.3203125 9.6640625 C-23.03913752 8.89925329 -31.82107627 11.62649997 -38.7578125 17.0625 C-44.18033052 22.62058097 -47.80194344 29.90058168 -48.3203125 37.6640625 C-48.1773082 42.02322806 -47.81582817 46.3316485 -47.3203125 50.6640625 C-46.87751953 49.22160156 -46.87751953 49.22160156 -46.42578125 47.75 C-45.3203125 44.6640625 -45.3203125 44.6640625 -43.6328125 43.2890625 C-40.08840074 42.33111337 -37.99275192 41.96756537 -34.3203125 42.6640625 C-31.63658914 45.25019592 -30.06437215 48.39814312 -28.3203125 51.6640625 C-27.97226562 52.29103027 -27.62421875 52.91799805 -27.265625 53.56396484 C-26.11377129 55.64772778 -24.99359653 57.74564566 -23.8828125 59.8515625 C-23.51615479 60.52832031 -23.14949707 61.20507812 -22.77172852 61.90234375 C-20.60565198 66.17480798 -19.77646454 68.8908812 -21.3203125 73.6640625 C-24.21551985 76.38380274 -25.85209079 76.6724236 -29.8203125 76.6015625 C-31.32555797 76.31539416 -32.82504349 75.99846771 -34.3203125 75.6640625 C-35.37476562 75.48359375 -36.42921875 75.303125 -37.515625 75.1171875 C-42.42780506 74.02061883 -46.11293501 73.13441046 -49.3828125 69.15234375 C-51.00941729 66.04146209 -52.2130883 62.99375845 -53.3203125 59.6640625 C-53.65546875 58.77976563 -53.990625 57.89546875 -54.3359375 56.984375 C-58.19119274 44.89289266 -58.89000853 27.65147603 -52.984375 16.203125 C-41.47028907 -1.36531597 -19.63934718 -9.73806966 0 0 Z M-26.3203125 -0.3359375 C-26.3203125 -0.0059375 -26.3203125 0.3240625 -26.3203125 0.6640625 C-24.3403125 0.6640625 -22.3603125 0.6640625 -20.3203125 0.6640625 C-20.3203125 0.3340625 -20.3203125 0.0040625 -20.3203125 -0.3359375 C-22.3003125 -0.3359375 -24.2803125 -0.3359375 -26.3203125 -0.3359375 Z M-16.3203125 -0.3359375 C-16.3203125 -0.0059375 -16.3203125 0.3240625 -16.3203125 0.6640625 C-14.3403125 0.6640625 -12.3603125 0.6640625 -10.3203125 0.6640625 C-10.3203125 0.3340625 -10.3203125 0.0040625 -10.3203125 -0.3359375 C-12.3003125 -0.3359375 -14.2803125 -0.3359375 -16.3203125 -0.3359375 Z M-43.3203125 12.6640625 C-43.85527344 13.2209375 -44.39023437 13.7778125 -44.94140625 14.3515625 C-46.3203125 15.6640625 -46.3203125 15.6640625 -49.3203125 16.6640625 C-54.11678698 24.02721229 -53.75894543 32.20819431 -53.3203125 40.6640625 C-51.81943123 37.91553507 -51.01836387 35.55670207 -50.5078125 32.4765625 C-48.48224564 23.11598835 -43.36327921 15.89612454 -35.3203125 10.6640625 C-24.34664388 5.89582216 -15.82845799 5.48604091 -4.578125 9.21875 C4.0202909 13.03339494 9.34023798 19.30303879 12.78515625 27.93359375 C14.05811527 31.8191761 14.95400465 35.63982127 15.6796875 39.6640625 C16.0096875 39.6640625 16.3396875 39.6640625 16.6796875 39.6640625 C17.12993294 31.68471282 17.50383553 23.47868994 12.6796875 16.6640625 C10.21755654 15.51982679 10.21755654 15.51982679 7.6796875 14.6640625 C5.99257327 13.0180974 4.3251253 11.35169101 2.6796875 9.6640625 C0.51348206 8.36886255 0.51348206 8.36886255 -1.3203125 7.6640625 C-0.9903125 6.3440625 -0.6603125 5.0240625 -0.3203125 3.6640625 C-1.6403125 3.3340625 -2.9603125 3.0040625 -4.3203125 2.6640625 C-4.3203125 3.3240625 -4.3203125 3.9840625 -4.3203125 4.6640625 C-5.14015625 4.4475 -5.96 4.2309375 -6.8046875 4.0078125 C-7.88234375 3.729375 -8.96 3.4509375 -10.0703125 3.1640625 C-11.13765625 2.885625 -12.205 2.6071875 -13.3046875 2.3203125 C-24.92552919 -0.20857533 -34.74829047 5.37122729 -43.3203125 12.6640625 Z M-53.3203125 44.6640625 C-52.9903125 46.9740625 -52.6603125 49.2840625 -52.3203125 51.6640625 C-51.9903125 51.6640625 -51.6603125 51.6640625 -51.3203125 51.6640625 C-51.3203125 49.6840625 -51.3203125 47.7040625 -51.3203125 45.6640625 C-51.9803125 45.3340625 -52.6403125 45.0040625 -53.3203125 44.6640625 Z M14.6796875 44.6640625 C14.6796875 46.9740625 14.6796875 49.2840625 14.6796875 51.6640625 C15.0096875 51.6640625 15.3396875 51.6640625 15.6796875 51.6640625 C16.0096875 49.3540625 16.3396875 47.0440625 16.6796875 44.6640625 C16.0196875 44.6640625 15.3596875 44.6640625 14.6796875 44.6640625 Z M-39.3203125 45.6640625 C-36.6803125 51.6040625 -34.0403125 57.5440625 -31.3203125 63.6640625 C-31.9803125 63.9940625 -32.6403125 64.3240625 -33.3203125 64.6640625 C-32.0003125 66.9740625 -30.6803125 69.2840625 -29.3203125 71.6640625 C-27.6703125 71.6640625 -26.0203125 71.6640625 -24.3203125 71.6640625 C-22.99412866 68.75591147 -22.99412866 68.75591147 -24.24487305 66.31982422 C-25.81900931 63.38497608 -27.39873205 60.45494483 -29.0078125 57.5390625 C-29.55115234 56.51167969 -30.09449219 55.48429687 -30.65429688 54.42578125 C-31.18732422 53.44996094 -31.72035156 52.47414063 -32.26953125 51.46875 C-32.75768311 50.57140137 -33.24583496 49.67405273 -33.7487793 48.74951172 C-35.31165617 46.22081209 -35.31165617 46.22081209 -39.3203125 45.6640625 Z M-0.3203125 45.6640625 C-2.19796153 48.29277114 -3.74987236 50.84919765 -5.3203125 53.6640625 C-5.65853027 54.25896484 -5.99674805 54.85386719 -6.34521484 55.46679688 C-7.47571805 57.46267869 -8.58794837 59.46776003 -9.6953125 61.4765625 C-10.06551514 62.13470947 -10.43571777 62.79285645 -10.81713867 63.47094727 C-11.73057076 65.16161122 -12.53407488 66.91062782 -13.3203125 68.6640625 C-12.9903125 69.6540625 -12.6603125 70.6440625 -12.3203125 71.6640625 C-10.6703125 71.6640625 -9.0203125 71.6640625 -7.3203125 71.6640625 C-6.0003125 69.0240625 -4.6803125 66.3840625 -3.3203125 63.6640625 C-3.9803125 63.6640625 -4.6403125 63.6640625 -5.3203125 63.6640625 C-2.6803125 57.7240625 -0.0403125 51.7840625 2.6796875 45.6640625 C1.6896875 45.6640625 0.6996875 45.6640625 -0.3203125 45.6640625 Z M-41.3203125 47.6640625 C-40.3203125 49.6640625 -40.3203125 49.6640625 -40.3203125 49.6640625 Z M3.6796875 47.6640625 C4.6796875 49.6640625 4.6796875 49.6640625 4.6796875 49.6640625 Z M-40.3203125 49.6640625 C-39.3203125 51.6640625 -39.3203125 51.6640625 -39.3203125 51.6640625 Z M2.6796875 49.6640625 C3.6796875 51.6640625 3.6796875 51.6640625 3.6796875 51.6640625 Z M-43.3203125 50.6640625 C-45.12683112 53.69901378 -46.3035733 55.91079832 -46.3828125 59.4765625 C-44.86367731 64.03396807 -42.92644206 68.41375597 -39.3203125 71.6640625 C-36.61397943 72.31635816 -34.11890013 72.48788722 -31.3203125 72.6640625 C-31.86300781 71.57867187 -32.40570313 70.49328125 -32.96484375 69.375 C-36.08333333 63.13802083 -39.20182292 56.90104167 -42.3203125 50.6640625 C-42.6503125 50.6640625 -42.9803125 50.6640625 -43.3203125 50.6640625 Z M5.6796875 50.6640625 C2.0496875 57.5940625 -1.5803125 64.5240625 -5.3203125 71.6640625 C-2.72211418 72.96316166 -0.94446773 72.61601282 1.7890625 71.7890625 C5.78641656 69.41047166 8.09498902 64.92613461 9.6796875 60.6640625 C9.30174805 57.05500695 8.10502287 53.98984503 6.6796875 50.6640625 C6.3496875 50.6640625 6.0196875 50.6640625 5.6796875 50.6640625 Z M-51.3203125 51.6640625 C-50.3203125 55.6640625 -50.3203125 55.6640625 -50.3203125 55.6640625 Z M-39.3203125 51.6640625 C-38.3203125 53.6640625 -38.3203125 53.6640625 -38.3203125 53.6640625 Z M1.6796875 51.6640625 C2.6796875 53.6640625 2.6796875 53.6640625 2.6796875 53.6640625 Z M13.6796875 51.6640625 C14.6796875 55.6640625 14.6796875 55.6640625 14.6796875 55.6640625 Z M-37.3203125 54.6640625 C-36.3203125 56.6640625 -36.3203125 56.6640625 -36.3203125 56.6640625 Z M-0.3203125 54.6640625 C0.6796875 56.6640625 0.6796875 56.6640625 0.6796875 56.6640625 Z M-50.3203125 55.6640625 C-49.3203125 58.6640625 -49.3203125 58.6640625 -49.3203125 58.6640625 Z M12.6796875 55.6640625 C13.6796875 58.6640625 13.6796875 58.6640625 13.6796875 58.6640625 Z M-34.3203125 60.6640625 C-33.3203125 62.6640625 -33.3203125 62.6640625 -33.3203125 62.6640625 Z M-3.3203125 60.6640625 C-2.3203125 62.6640625 -2.3203125 62.6640625 -2.3203125 62.6640625 Z " fill="#000000" transform="translate(68.3203125,14.3359375)"/>
</svg>
