<?xml version="1.0" encoding="UTF-8"?>
<svg version="1.1" xmlns="http://www.w3.org/2000/svg" width="50" height="50">
<path d="M0 0 C1.27875 0.00257812 2.5575 0.00515625 3.875 0.0078125 C5.15375 0.00523438 6.4325 0.00265625 7.75 0 C10.875 0.1328125 10.875 0.1328125 11.875 1.1328125 C13.72391946 1.36645131 15.57988031 1.54584885 17.4375 1.6953125 C18.95537109 1.82099609 18.95537109 1.82099609 20.50390625 1.94921875 C21.67759766 2.04009766 21.67759766 2.04009766 22.875 2.1328125 C23.38257862 3.54678152 23.88074925 4.96412979 24.375 6.3828125 C24.6534375 7.17171875 24.931875 7.960625 25.21875 8.7734375 C25.875 11.1328125 25.875 11.1328125 25.875 15.1328125 C26.865 15.1328125 27.855 15.1328125 28.875 15.1328125 C28.875 17.7728125 28.875 20.4128125 28.875 23.1328125 C28.215 23.1328125 27.555 23.1328125 26.875 23.1328125 C26.60945313 24.24140625 26.34390625 25.35 26.0703125 26.4921875 C25.71379379 27.95579061 25.35700897 29.41932891 25 30.8828125 C24.82597656 31.61242187 24.65195312 32.34203125 24.47265625 33.09375 C24.29863281 33.80273438 24.12460937 34.51171875 23.9453125 35.2421875 C23.78820801 35.89155273 23.63110352 36.54091797 23.46923828 37.20996094 C22.875 39.1328125 22.875 39.1328125 20.875 43.1328125 C9.655 43.1328125 -1.565 43.1328125 -13.125 43.1328125 C-15.25498291 38.16285238 -16.70014044 34.33335426 -17.8125 29.1953125 C-18.06386719 28.05191406 -18.31523437 26.90851562 -18.57421875 25.73046875 C-18.75597656 24.87324219 -18.93773437 24.01601563 -19.125 23.1328125 C-19.785 23.1328125 -20.445 23.1328125 -21.125 23.1328125 C-21.125 20.4928125 -21.125 17.8528125 -21.125 15.1328125 C-20.135 15.1328125 -19.145 15.1328125 -18.125 15.1328125 C-18.00125 13.9159375 -17.8775 12.6990625 -17.75 11.4453125 C-17.40438124 8.04672806 -16.47633698 5.26945239 -15.125 2.1328125 C-14.34253906 2.07222656 -13.56007813 2.01164063 -12.75390625 1.94921875 C-11.74199219 1.86542969 -10.73007813 1.78164062 -9.6875 1.6953125 C-8.67816406 1.61410156 -7.66882813 1.53289063 -6.62890625 1.44921875 C-3.45551633 1.04821316 -3.40611204 0.14475976 0 0 Z M-1.125 3.1328125 C-2.76607242 3.34120265 -4.41356293 3.50032975 -6.0625 3.6328125 C-9.73057465 3.88496193 -9.73057465 3.88496193 -13.125 5.1328125 C-13.785 8.4328125 -14.445 11.7328125 -15.125 15.1328125 C-2.585 15.1328125 9.955 15.1328125 22.875 15.1328125 C22.215 11.8328125 21.555 8.5328125 20.875 5.1328125 C17.77968901 3.585157 14.5083237 3.68871799 11.08984375 3.4140625 C8.875 3.1328125 8.875 3.1328125 7.875 2.1328125 C6.00178052 1.97227435 6.00178052 1.97227435 3.875 2.0078125 C3.153125 2.00523438 2.43125 2.00265625 1.6875 2 C-0.14589415 1.93585974 -0.14589415 1.93585974 -1.125 3.1328125 Z M-19.125 17.1328125 C-19.125 18.4528125 -19.125 19.7728125 -19.125 21.1328125 C-3.945 21.1328125 11.235 21.1328125 26.875 21.1328125 C26.875 19.8128125 26.875 18.4928125 26.875 17.1328125 C11.695 17.1328125 -3.485 17.1328125 -19.125 17.1328125 Z M-16.125 23.1328125 C-14.475 29.0728125 -12.825 35.0128125 -11.125 41.1328125 C-1.225 41.1328125 8.675 41.1328125 18.875 41.1328125 C20.525 35.1928125 22.175 29.2528125 23.875 23.1328125 C10.675 23.1328125 -2.525 23.1328125 -16.125 23.1328125 Z " fill="#000000" transform="translate(21.125,2.8671875)"/>
<path d="M0 0 C1.98 0 3.96 0 6 0 C6 5.28 6 10.56 6 16 C4.02 16 2.04 16 0 16 C0 10.72 0 5.44 0 0 Z M2 3 C2 6.3 2 9.6 2 13 C2.66 13 3.32 13 4 13 C4 9.7 4 6.4 4 3 C3.34 3 2.68 3 2 3 Z " fill="#000000" transform="translate(30,27)"/>
<path d="M0 0 C1.98 0 3.96 0 6 0 C6 5.28 6 10.56 6 16 C4.02 16 2.04 16 0 16 C0 10.72 0 5.44 0 0 Z M2 3 C2 6.3 2 9.6 2 13 C2.66 13 3.32 13 4 13 C4 9.7 4 6.4 4 3 C3.34 3 2.68 3 2 3 Z " fill="#000000" transform="translate(22,27)"/>
<path d="M0 0 C1.98 0 3.96 0 6 0 C6 5.28 6 10.56 6 16 C4.02 16 2.04 16 0 16 C0 10.72 0 5.44 0 0 Z M2 3 C2 6.3 2 9.6 2 13 C2.66 13 3.32 13 4 13 C4 9.7 4 6.4 4 3 C3.34 3 2.68 3 2 3 Z " fill="#000000" transform="translate(14,27)"/>
</svg>
