<?xml version="1.0" encoding="UTF-8"?>
<svg version="1.1" xmlns="http://www.w3.org/2000/svg" width="24" height="24">
<path d="M0 0 C3 0.25 3 0.25 5 2.25 C5.25 5.25 5.25 5.25 5 8.25 C3 10.25 3 10.25 0 10.5 C-3 10.25 -3 10.25 -5 8.25 C-5.25 5.25 -5.25 5.25 -5 2.25 C-3 0.25 -3 0.25 0 0 Z M-1 2.25 C-1.66 3.57 -2.32 4.89 -3 6.25 C-1.02 7.24 -1.02 7.24 1 8.25 C1.66 6.93 2.32 5.61 3 4.25 C1.68 3.59 0.36 2.93 -1 2.25 Z " fill="#000000" transform="translate(18,12.75)"/>
<path d="M0 0 C0.721875 0.00257812 1.44375 0.00515625 2.1875 0.0078125 C2.909375 0.00523438 3.63125 0.00265625 4.375 0 C6.1875 0.1328125 6.1875 0.1328125 7.1875 1.1328125 C7.3203125 2.9453125 7.3203125 2.9453125 7.3125 5.1328125 C7.31507812 5.8546875 7.31765625 6.5765625 7.3203125 7.3203125 C7.1875 9.1328125 7.1875 9.1328125 6.1875 10.1328125 C4.375 10.265625 4.375 10.265625 2.1875 10.2578125 C1.465625 10.26039062 0.74375 10.26296875 0 10.265625 C-1.8125 10.1328125 -1.8125 10.1328125 -2.8125 9.1328125 C-2.9453125 7.3203125 -2.9453125 7.3203125 -2.9375 5.1328125 C-2.94007812 4.4109375 -2.94265625 3.6890625 -2.9453125 2.9453125 C-2.7645617 0.47859567 -2.46671683 0.1807508 0 0 Z M0.1875 2.1328125 C-0.1425 3.7828125 -0.4725 5.4328125 -0.8125 7.1328125 C1.6625 7.6278125 1.6625 7.6278125 4.1875 8.1328125 C4.5175 6.4828125 4.8475 4.8328125 5.1875 3.1328125 C3.5375 2.8028125 1.8875 2.4728125 0.1875 2.1328125 Z " fill="#000000" transform="translate(3.8125,12.8671875)"/>
<path d="M0 0 C0.721875 0.00257812 1.44375 0.00515625 2.1875 0.0078125 C2.909375 0.00523438 3.63125 0.00265625 4.375 0 C6.1875 0.1328125 6.1875 0.1328125 7.1875 1.1328125 C7.3203125 2.9453125 7.3203125 2.9453125 7.3125 5.1328125 C7.31507812 5.8546875 7.31765625 6.5765625 7.3203125 7.3203125 C7.1875 9.1328125 7.1875 9.1328125 6.1875 10.1328125 C4.375 10.265625 4.375 10.265625 2.1875 10.2578125 C1.465625 10.26039062 0.74375 10.26296875 0 10.265625 C-1.8125 10.1328125 -1.8125 10.1328125 -2.8125 9.1328125 C-2.9453125 7.3203125 -2.9453125 7.3203125 -2.9375 5.1328125 C-2.94007812 4.4109375 -2.94265625 3.6890625 -2.9453125 2.9453125 C-2.7645617 0.47859567 -2.46671683 0.1807508 0 0 Z M0.1875 2.1328125 C-0.1425 3.7828125 -0.4725 5.4328125 -0.8125 7.1328125 C1.6625 7.6278125 1.6625 7.6278125 4.1875 8.1328125 C4.5175 6.4828125 4.8475 4.8328125 5.1875 3.1328125 C3.5375 2.8028125 1.8875 2.4728125 0.1875 2.1328125 Z " fill="#000000" transform="translate(15.8125,0.8671875)"/>
<path d="M0 0 C0.721875 0.00257812 1.44375 0.00515625 2.1875 0.0078125 C2.909375 0.00523438 3.63125 0.00265625 4.375 0 C6.1875 0.1328125 6.1875 0.1328125 7.1875 1.1328125 C7.3203125 2.9453125 7.3203125 2.9453125 7.3125 5.1328125 C7.31507812 5.8546875 7.31765625 6.5765625 7.3203125 7.3203125 C7.1875 9.1328125 7.1875 9.1328125 6.1875 10.1328125 C4.375 10.265625 4.375 10.265625 2.1875 10.2578125 C1.465625 10.26039062 0.74375 10.26296875 0 10.265625 C-1.8125 10.1328125 -1.8125 10.1328125 -2.8125 9.1328125 C-2.9453125 7.3203125 -2.9453125 7.3203125 -2.9375 5.1328125 C-2.94007812 4.4109375 -2.94265625 3.6890625 -2.9453125 2.9453125 C-2.7645617 0.47859567 -2.46671683 0.1807508 0 0 Z M0.1875 2.1328125 C-0.1425 3.7828125 -0.4725 5.4328125 -0.8125 7.1328125 C1.6625 7.6278125 1.6625 7.6278125 4.1875 8.1328125 C4.5175 6.4828125 4.8475 4.8328125 5.1875 3.1328125 C3.5375 2.8028125 1.8875 2.4728125 0.1875 2.1328125 Z " fill="#000000" transform="translate(3.8125,0.8671875)"/>
</svg>
