<?xml version="1.0" encoding="UTF-8"?>
<svg version="1.1" xmlns="http://www.w3.org/2000/svg" width="100" height="100">
<path d="M0 0 C0.495 3.465 0.495 3.465 1 7 C1.99 7.33 2.98 7.66 4 8 C4 10.31 4 12.62 4 15 C4.598125 15.061875 5.19625 15.12375 5.8125 15.1875 C8.99953627 16.37125633 9.56051151 17.95744477 11 21 C11.29296875 24.55078125 11.29296875 24.55078125 11.1875 28.3125 C11.14689453 30.19388672 11.14689453 30.19388672 11.10546875 32.11328125 C11.07066406 33.06589844 11.03585938 34.01851562 11 35 C12.65 35.33 14.3 35.66 16 36 C16.0809313 38.60478883 16.14045434 41.20706653 16.1875 43.8125 C16.21263672 44.55048828 16.23777344 45.28847656 16.26367188 46.04882812 C16.33780469 51.50994531 16.33780469 51.50994531 14.61328125 54.01171875 C13 55 13 55 11 55 C11.02320312 55.88042969 11.04640625 56.76085937 11.0703125 57.66796875 C11.08835937 58.82941406 11.10640625 59.99085937 11.125 61.1875 C11.14820312 62.33605469 11.17140625 63.48460937 11.1953125 64.66796875 C11.00313312 67.94654899 10.51407144 70.10420602 9 73 C2.21690695 76.39154652 -7.73856129 75.1765144 -15.13671875 75.203125 C-16.37492874 75.20882507 -17.61313873 75.21452515 -18.88887024 75.22039795 C-21.4933691 75.22980229 -24.09787961 75.23636365 -26.70239258 75.24023438 C-29.36483481 75.24675877 -32.02644946 75.25865394 -34.6887207 75.28125 C-38.54648627 75.31168039 -42.40384664 75.32227524 -46.26171875 75.328125 C-47.44932297 75.3404718 -48.63692719 75.3528186 -49.86051941 75.36553955 C-60.3377156 75.33725525 -60.3377156 75.33725525 -65 72 C-67.13975044 68.79037434 -67.2604882 67.89624577 -67.30639648 64.1965332 C-67.32238388 63.22154373 -67.33837128 62.24655426 -67.35484314 61.24201965 C-67.36020584 60.18891098 -67.36556854 59.13580231 -67.37109375 58.05078125 C-67.38012222 56.96419724 -67.3891507 55.87761322 -67.39845276 54.75810242 C-67.41297153 52.45570638 -67.42184602 50.15326893 -67.42553711 47.85083008 C-67.43739622 44.3431949 -67.48653691 40.83733996 -67.53710938 37.33007812 C-67.54657796 35.0911544 -67.55381091 32.85221989 -67.55859375 30.61328125 C-67.57812607 29.57029373 -67.59765839 28.52730621 -67.61778259 27.45271301 C-67.58319609 21.8146545 -67.14205552 17.21360282 -63.75791931 12.55799866 C-60.18104156 9.38790393 -55.81058351 8.86190374 -51.22265625 8.06640625 C-50.17855087 7.85813705 -49.1344455 7.64986786 -48.05870056 7.43528748 C-44.73187222 6.77935464 -41.39837917 6.17053399 -38.0625 5.5625 C-35.82297226 5.12871395 -33.58402951 4.69189609 -31.34570312 4.25195312 C-8.76014854 -0.15103704 -8.76014854 -0.15103704 0 0 Z M11 51 C11.33 51.66 11.66 52.32 12 53 C12.66 52.34 13.32 51.68 14 51 C13.01 51 12.02 51 11 51 Z M-56 70 C-56 70.33 -56 70.66 -56 71 C-35.54 71 -15.08 71 6 71 C6 70.67 6 70.34 6 70 C-14.46 70 -34.92 70 -56 70 Z " fill="#ED9115" transform="translate(76,10)"/>
<path d="M0 0 C-3.49668557 2.33112371 -6.81669308 3.03383382 -10.8515625 3.91015625 C-11.62503021 4.08252304 -12.39849792 4.25488983 -13.19540405 4.43247986 C-14.83385584 4.79602713 -16.47300843 5.1564282 -18.11279297 5.51391602 C-20.59664597 6.0563084 -23.07768268 6.61034092 -25.55859375 7.16601562 C-27.15609443 7.5189341 -28.75374633 7.87116891 -30.3515625 8.22265625 C-31.08315582 8.38621109 -31.81474915 8.54976593 -32.56851196 8.71827698 C-37.69722458 9.82746587 -42.77723816 10.48699842 -48 11 C-48 12.32 -48 13.64 -48 15 C-48.99 15.495 -48.99 15.495 -50 16 C-50.07424697 22.03228065 -50.1286483 28.06429432 -50.16479492 34.09692383 C-50.17986622 36.14840326 -50.20032682 38.19985056 -50.22631836 40.2512207 C-50.26277424 43.20271748 -50.27974306 46.15378763 -50.29296875 49.10546875 C-50.30845261 50.02023483 -50.32393646 50.93500092 -50.33988953 51.87748718 C-50.34114877 56.65961241 -50.34093574 60.24927798 -47 64 C-43.66013757 65.184982 -40.40388083 65.1329227 -36.88623047 65.14526367 C-35.65170135 65.15164352 -34.41717224 65.15802338 -33.14523315 65.16459656 C-31.80255167 65.16612476 -30.45986966 65.16723898 -29.1171875 65.16796875 C-27.73764003 65.17118274 -26.3580929 65.17454692 -24.97854614 65.17805481 C-22.09197193 65.18403402 -19.20542762 65.18589579 -16.31884766 65.18530273 C-12.61528743 65.18520081 -8.91191762 65.19888949 -5.20840263 65.21607494 C-2.362021 65.22717301 0.48431412 65.22922268 3.33071518 65.22869301 C4.69670141 65.22987504 6.06268877 65.23430926 7.42865372 65.24202538 C9.33408401 65.25178688 11.23957021 65.24769296 13.14501953 65.24291992 C14.22993683 65.24434494 15.31485413 65.24576996 16.43264771 65.24723816 C19.16526864 65.25877751 19.16526864 65.25877751 21 63 C21.30599063 60.43083343 21.51087087 57.95241616 21.625 55.375 C21.66367188 54.66859375 21.70234375 53.9621875 21.7421875 53.234375 C21.83647724 51.49001476 21.91932891 49.74504309 22 48 C23.65 47.67 25.3 47.34 27 47 C27.33 46.01 27.66 45.02 28 44 C28.33 44.99 28.66 45.98 29 47 C27.625 48.5 27.625 48.5 26 50 C25.34 50 24.68 50 24 50 C24.02320312 50.88042969 24.04640625 51.76085937 24.0703125 52.66796875 C24.08835937 53.82941406 24.10640625 54.99085937 24.125 56.1875 C24.14820312 57.33605469 24.17140625 58.48460937 24.1953125 59.66796875 C24.00313312 62.94654899 23.51407144 65.10420602 22 68 C15.21690695 71.39154652 5.26143871 70.1765144 -2.13671875 70.203125 C-3.37492874 70.20882507 -4.61313873 70.21452515 -5.88887024 70.22039795 C-8.4933691 70.22980229 -11.09787961 70.23636365 -13.70239258 70.24023438 C-16.36483481 70.24675877 -19.02644946 70.25865394 -21.6887207 70.28125 C-25.54648627 70.31168039 -29.40384664 70.32227524 -33.26171875 70.328125 C-34.44932297 70.3404718 -35.63692719 70.3528186 -36.86051941 70.36553955 C-47.3377156 70.33725525 -47.3377156 70.33725525 -52 67 C-54.14805625 63.77791563 -54.2577136 62.88143865 -54.29052734 59.16479492 C-54.30328705 58.18335007 -54.31604675 57.20190521 -54.32919312 56.1907196 C-54.33141876 55.13133682 -54.33364441 54.07195404 -54.3359375 52.98046875 C-54.3459227 51.34347771 -54.3459227 51.34347771 -54.35610962 49.67341614 C-54.36624122 47.36261685 -54.37092648 45.05178827 -54.37060547 42.7409668 C-54.37497022 39.21158323 -54.41126283 35.68345842 -54.44921875 32.15429688 C-54.4550885 29.90885844 -54.45905683 27.66341407 -54.4609375 25.41796875 C-54.47530853 24.36465866 -54.48967957 23.31134857 -54.50448608 22.22612 C-54.46733335 16.24316216 -54.24376655 12.4096452 -50 8 C-47.66015625 7.01513672 -47.66015625 7.01513672 -45.0625 6.6796875 C-44.09425293 6.53885742 -43.12600586 6.39802734 -42.12841797 6.25292969 C-41.09604004 6.12821289 -40.06366211 6.00349609 -39 5.875 C-36.83548647 5.56827027 -34.67142732 5.25831867 -32.5078125 4.9453125 C-31.42016602 4.79352539 -30.33251953 4.64173828 -29.21191406 4.48535156 C-23.56777033 3.63246636 -17.99879033 2.4271114 -12.421875 1.21826172 C-8.19911862 0.33166181 -4.34555895 -0.19437005 0 0 Z " fill="#040200" transform="translate(63,15)"/>
<path d="M0 0 C0.495 3.465 0.495 3.465 1 7 C1.99 7.33 2.98 7.66 4 8 C4 10.31 4 12.62 4 15 C-14.48 15 -32.96 15 -52 15 C-48.57884764 12.71923176 -45.43930012 12.07216425 -41.48828125 11.2734375 C-40.76005661 11.12089508 -40.03183197 10.96835266 -39.28153992 10.81118774 C-36.95975599 10.32630933 -34.6362106 9.85055008 -32.3125 9.375 C-30.73620341 9.04747466 -29.16002984 8.71935662 -27.58398438 8.390625 C-23.72404915 7.58687029 -19.86250936 6.79128784 -16 6 C-26.17125633 7.34651778 -36.15321138 9.17093212 -46.18164062 11.3203125 C-51.56439053 12.43880599 -56.4997465 13.297311 -62 13 C-62 12.34 -62 11.68 -62 11 C-55.27428009 9.59245861 -48.54816602 8.1868127 -41.82177734 6.7824707 C-39.53457716 6.30471512 -37.24746685 5.82652906 -34.96044922 5.34790039 C-31.66918208 4.65918021 -28.37759262 3.97201941 -25.0859375 3.28515625 C-24.06696381 3.07157974 -23.04799011 2.85800323 -21.99813843 2.63795471 C-14.54819218 1.08573612 -7.61914006 -0.13136448 0 0 Z " fill="#71933D" transform="translate(76,10)"/>
<path d="M0 0 C1.31291016 0.01450195 1.31291016 0.01450195 2.65234375 0.02929688 C9.08142389 0.14392389 9.08142389 0.14392389 10.25 1.3125 C10.37537741 3.45557896 10.42574364 5.60328886 10.4375 7.75 C10.45167969 8.92433594 10.46585938 10.09867188 10.48046875 11.30859375 C10.25 14.3125 10.25 14.3125 8.25 16.3125 C5.13112214 16.66334382 2.00540498 16.40050024 -1.125 16.25 C-2.42050781 16.22776367 -2.42050781 16.22776367 -3.7421875 16.20507812 C-10.09589748 15.91582744 -10.09589748 15.91582744 -13.31640625 12.9453125 C-15.08817626 9.69143515 -15.44834834 7.95943023 -14.75 4.3125 C-10.40012501 -0.57559482 -6.08727965 -0.20534302 0 0 Z " fill="#EDC638" transform="translate(81.75,44.6875)"/>
<path d="M0 0 C2.475 0.99 2.475 0.99 5 2 C5 13.88 5 25.76 5 38 C0 39 0 39 -2 38 C-2 25.79 -2 13.58 -2 1 C-1.34 0.67 -0.68 0.34 0 0 Z " fill="#FDA818" transform="translate(21,32)"/>
<path d="M0 0 C0.495 3.465 0.495 3.465 1 7 C-0.64573233 7.02768522 -2.29161069 7.04669585 -3.9375 7.0625 C-4.85402344 7.07410156 -5.77054688 7.08570313 -6.71484375 7.09765625 C-9.29836025 7.02085731 -11.63073833 6.77355006 -14.17358398 6.40429688 C-18.89159235 5.87106795 -22.89921761 6.41914002 -27.5078125 7.43359375 C-28.66239456 7.66877464 -28.66239456 7.66877464 -29.84030151 7.90870667 C-32.27138258 8.40555903 -34.6982023 8.9201669 -37.125 9.4375 C-39.5593242 9.94885784 -41.99432742 10.45612342 -44.43112183 10.95558167 C-45.93863378 11.26529578 -47.44472748 11.58202942 -48.94900513 11.90708923 C-53.39416888 12.82917362 -57.45943523 13.14892577 -62 13 C-62 12.34 -62 11.68 -62 11 C-55.27428009 9.59245861 -48.54816602 8.1868127 -41.82177734 6.7824707 C-39.53457716 6.30471512 -37.24746685 5.82652906 -34.96044922 5.34790039 C-31.66918208 4.65918021 -28.37759262 3.97201941 -25.0859375 3.28515625 C-24.06696381 3.07157974 -23.04799011 2.85800323 -21.99813843 2.63795471 C-14.54819218 1.08573612 -7.61914006 -0.13136448 0 0 Z " fill="#2F5F3E" transform="translate(76,10)"/>
<path d="M0 0 C-3.51573353 2.34382235 -6.86361518 3.03612695 -10.921875 3.91015625 C-11.70008606 4.08252304 -12.47829712 4.25488983 -13.28009033 4.43247986 C-14.92695486 4.79595034 -16.57449869 5.15635453 -18.22265625 5.51391602 C-20.72812419 6.05775165 -23.23135765 6.61102232 -25.734375 7.16601562 C-27.3384184 7.51879014 -28.94258146 7.87102107 -30.546875 8.22265625 C-31.65974884 8.46798851 -31.65974884 8.46798851 -32.79510498 8.71827698 C-37.18330647 9.66711344 -41.5479992 10.41734824 -46 11 C-46 10.34 -46 9.68 -46 9 C-46.99 8.67 -47.98 8.34 -49 8 C-47.84552368 7.79636841 -47.84552368 7.79636841 -46.66772461 7.58862305 C-43.09067276 6.95665493 -39.51402582 6.32243837 -35.9375 5.6875 C-34.65665527 5.4603833 -33.37581055 5.2332666 -32.05615234 4.99926758 C-24.30174963 3.61571215 -16.57926416 2.15885158 -8.8828125 0.48046875 C-5.87112579 -0.02147903 -3.0475615 -0.08642339 0 0 Z " fill="#0E180E" transform="translate(63,15)"/>
<path d="M0 0 C0.495 1.98 0.495 1.98 1 4 C-10.22 4 -21.44 4 -33 4 C-33 3.67 -33 3.34 -33 3 C-28.94347189 2.57010863 -24.88666708 2.14294035 -20.82958984 1.71826172 C-19.45027985 1.57349732 -18.07104686 1.42799714 -16.69189453 1.28173828 C-14.70626035 1.07129255 -12.72032055 0.86373685 -10.734375 0.65625 C-8.94338379 0.46772461 -8.94338379 0.46772461 -7.11621094 0.27539062 C-4 0 -4 0 0 0 Z " fill="#85B370" transform="translate(69,21)"/>
<path d="M0 0 C2.625 0.375 2.625 0.375 5 1 C5.625 3.375 5.625 3.375 6 6 C5.34 6.66 4.68 7.32 4 8 C1.375 7.625 1.375 7.625 -1 7 C-1.625 4.625 -1.625 4.625 -2 2 C-1.34 1.34 -0.68 0.68 0 0 Z " fill="#7D4978" transform="translate(73,49)"/>
<path d="M0 0 C0.33 0.66 0.66 1.32 1 2 C-3.96073422 3.32286246 -8.91111512 3.08893197 -14 3 C-9.41201726 -0.05865516 -5.43293781 -0.12634739 0 0 Z " fill="#7EA967" transform="translate(66,16)"/>
<path d="M0 0 C0 0.66 0 1.32 0 2 C-2.31 2.33 -4.62 2.66 -7 3 C-7 2.34 -7 1.68 -7 1 C-7.99 0.67 -8.98 0.34 -10 0 C-3.375 -1.125 -3.375 -1.125 0 0 Z " fill="#161609" transform="translate(24,23)"/>
<path d="M0 0 C0.33 0.99 0.66 1.98 1 3 C-1.97 3 -4.94 3 -8 3 C-8.33 2.34 -8.66 1.68 -9 1 C-5.94152152 0.45627049 -3.11227195 0 0 0 Z " fill="#376A44" transform="translate(74,14)"/>
<path d="M0 0 C-0.33 0.66 -0.66 1.32 -1 2 C-3.64860427 2.59355614 -6.29197322 2.74209269 -9 3 C-6.38997624 -0.48003168 -4.1689578 -0.27793052 0 0 Z " fill="#030603" transform="translate(32,21)"/>
</svg>
