<?xml version="1.0" encoding="UTF-8"?>
<svg version="1.1" xmlns="http://www.w3.org/2000/svg" width="50" height="50">
<path d="M0 0 C0.66 0 1.32 0 2 0 C2.33 1.98 2.66 3.96 3 6 C3.66 5.34 4.32 4.68 5 4 C5.99 4 6.98 4 8 4 C7.5984504 6.81084717 7.25191141 7.79532198 5 9.625 C1.91537138 13.28799649 2.17773311 17.34339241 2 22 C8.10680694 19.51294842 8.10680694 19.51294842 12.265625 14.6640625 C12.97816567 12.44959788 13.56695931 10.28466293 14 8 C14.99 8.33 15.98 8.66 17 9 C16.67 10.65 16.34 12.3 16 14 C16.99 13.34 17.98 12.68 19 12 C20.32 12 21.64 12 23 12 C21.25 15.875 21.25 15.875 19 17 C20.32 17.66 21.64 18.32 23 19 C22.505 20.485 22.505 20.485 22 22 C21.33613281 21.89300781 20.67226563 21.78601563 19.98828125 21.67578125 C14.34112439 20.82084551 14.34112439 20.82084551 9 22.4375 C8.01 23.2109375 8.01 23.2109375 7 24 C6.34 24 5.68 24 5 24 C5 24.66 5 25.32 5 26 C10.91256999 28.60848676 15.64466135 29.36185828 22 28 C22.495 29.485 22.495 29.485 23 31 C21.02 31.99 21.02 31.99 19 33 C19.66 33.45375 20.32 33.9075 21 34.375 C21.66 34.91125 22.32 35.4475 23 36 C23 36.66 23 37.32 23 38 C18.25 37.125 18.25 37.125 16 36 C16.495 38.475 16.495 38.475 17 41 C16.01 41.33 15.02 41.66 14 42 C13.88785156 41.40832031 13.77570312 40.81664062 13.66015625 40.20703125 C12.70281844 36.37142291 11.99711424 33.77435467 8.796875 31.2890625 C6.56526878 30.07501258 4.34396748 28.97788161 2 28 C2.06300575 35.05771972 2.06300575 35.05771972 5.5625 40.9375 C6.366875 41.618125 7.17125 42.29875 8 43 C8 43.99 8 44.98 8 46 C4.125 45.125 4.125 45.125 3 44 C2.67 45.98 2.34 47.96 2 50 C1.34 50 0.68 50 0 50 C-0.33 48.02 -0.66 46.04 -1 44 C-1.66 44.66 -2.32 45.32 -3 46 C-3.99 46 -4.98 46 -6 46 C-5.5984504 43.18915283 -5.25191141 42.20467802 -3 40.375 C0.08462862 36.71200351 -0.17773311 32.65660759 0 28 C-6.10680694 30.48705158 -6.10680694 30.48705158 -10.265625 35.3359375 C-10.97816567 37.55040212 -11.56695931 39.71533707 -12 42 C-12.99 41.67 -13.98 41.34 -15 41 C-14.67 39.35 -14.34 37.7 -14 36 C-14.99 36.66 -15.98 37.32 -17 38 C-18.32 38 -19.64 38 -21 38 C-19.25 34.125 -19.25 34.125 -17 33 C-18.32 32.34 -19.64 31.68 -21 31 C-20.505 29.515 -20.505 29.515 -20 28 C-19.33613281 28.10699219 -18.67226563 28.21398437 -17.98828125 28.32421875 C-12.34112439 29.17915449 -12.34112439 29.17915449 -7 27.5625 C-6.34 27.046875 -5.68 26.53125 -5 26 C-4.34 26 -3.68 26 -3 26 C-3 25.34 -3 24.68 -3 24 C-8.91256999 21.39151324 -13.64466135 20.63814172 -20 22 C-20.33 21.01 -20.66 20.02 -21 19 C-19.68 18.34 -18.36 17.68 -17 17 C-17.66 16.54625 -18.32 16.0925 -19 15.625 C-19.66 15.08875 -20.32 14.5525 -21 14 C-21 13.34 -21 12.68 -21 12 C-16.25 12.875 -16.25 12.875 -14 14 C-14.33 12.35 -14.66 10.7 -15 9 C-14.01 8.67 -13.02 8.34 -12 8 C-11.88785156 8.59167969 -11.77570312 9.18335938 -11.66015625 9.79296875 C-10.70281844 13.62857709 -9.99711424 16.22564533 -6.796875 18.7109375 C-4.56526878 19.92498742 -2.34396748 21.02211839 0 22 C-0.06300575 14.94228028 -0.06300575 14.94228028 -3.5625 9.0625 C-4.366875 8.381875 -5.17125 7.70125 -6 7 C-6 6.01 -6 5.02 -6 4 C-2.125 4.875 -2.125 4.875 -1 6 C-0.67 4.02 -0.34 2.04 0 0 Z " fill="#000000" transform="translate(24,0)"/>
</svg>
